<svg width="286" height="158" viewBox="0 0 286 158" fill="none" xmlns="http://www.w3.org/2000/svg">
<path d="M80 109C87.7063 109 93.9535 95.5685 93.9535 79C93.9535 62.4315 87.7063 49 80 49C72.2937 49 66.0465 62.4315 66.0465 79C66.0465 95.5685 72.2937 109 80 109Z" fill="white"/>
<path d="M107.483 84.2094C108.821 76.051 97.6014 67.105 82.423 64.2279C67.2445 61.3508 53.8552 65.6321 52.517 73.7906C51.1788 81.949 62.3986 90.895 77.577 93.7721C92.7554 96.6492 106.145 92.3679 107.483 84.2094Z" fill="white"/>
<path d="M163.203 32.75C163.203 33.0625 163.12 33.3073 162.953 33.4844C162.786 33.6615 162.578 33.7917 162.328 33.875C162.078 33.9583 161.812 34.0104 161.531 34.0312C161.25 34.0521 160.995 34.0625 160.766 34.0625C160.307 34.0625 159.849 34.0573 159.391 34.0469C158.932 34.0365 158.474 34.0312 158.016 34.0312C157.797 34.0312 157.578 34.0312 157.359 34.0312C157.141 34.0312 156.922 34.0417 156.703 34.0625C156.62 34.2396 156.568 34.4219 156.547 34.6094C156.526 34.7865 156.516 34.9688 156.516 35.1562C156.516 36.1354 156.552 37.1042 156.625 38.0625C156.698 39.0208 156.776 39.9896 156.859 40.9688C157.484 40.9167 158.109 40.8542 158.734 40.7812C159.359 40.7083 159.995 40.625 160.641 40.5312C160.724 40.5312 160.802 40.526 160.875 40.5156C160.948 40.5052 161.026 40.5 161.109 40.5C161.526 40.5 161.734 40.7292 161.734 41.1875C161.734 41.3125 161.719 41.4375 161.688 41.5625C161.667 41.6875 161.63 41.8125 161.578 41.9375C161.505 42.1458 161.385 42.3021 161.219 42.4062C161.052 42.5 160.865 42.5677 160.656 42.6094C160.448 42.6406 160.229 42.6562 160 42.6562C159.781 42.6458 159.589 42.6458 159.422 42.6562L156.984 42.75C157.047 43.7396 157.115 44.7188 157.188 45.6875C157.26 46.6562 157.339 47.6354 157.422 48.625C157.505 49.375 157.573 50.1302 157.625 50.8906C157.688 51.651 157.776 52.4062 157.891 53.1562V53.4062C157.891 53.6458 157.823 53.8073 157.688 53.8906C157.552 53.9635 157.38 54 157.172 54C156.786 54 156.422 53.9375 156.078 53.8125C155.849 53.7292 155.677 53.6302 155.562 53.5156C155.448 53.3906 155.365 53.2552 155.312 53.1094C155.271 52.9531 155.245 52.7865 155.234 52.6094C155.224 52.4323 155.214 52.2396 155.203 52.0312C155.109 50.4583 155.005 48.8958 154.891 47.3438C154.776 45.7812 154.672 44.2083 154.578 42.625C154.516 41.4583 154.448 40.3021 154.375 39.1562C154.302 38.0104 154.266 36.8542 154.266 35.6875C154.266 35.0729 154.302 34.5521 154.375 34.125C154.458 33.6875 154.609 33.3333 154.828 33.0625C155.047 32.7917 155.359 32.5938 155.766 32.4688C156.172 32.3438 156.703 32.2812 157.359 32.2812C158.036 32.2812 158.708 32.2865 159.375 32.2969C160.042 32.3073 160.714 32.3125 161.391 32.3125C161.63 32.3125 161.859 32.3073 162.078 32.2969C162.297 32.276 162.516 32.2917 162.734 32.3438C162.859 32.3646 162.969 32.401 163.062 32.4531C163.156 32.4948 163.203 32.5938 163.203 32.75ZM169.281 43.6875C169.281 43.7917 169.271 43.901 169.25 44.0156C169.229 44.1302 169.208 44.2344 169.188 44.3281C169.167 44.4427 169.146 44.5521 169.125 44.6562C169.104 44.75 169.094 44.8438 169.094 44.9375C169.094 45.9062 169.109 46.8802 169.141 47.8594C169.182 48.8281 169.286 49.8021 169.453 50.7812C169.505 51.1562 169.568 51.5208 169.641 51.875C169.714 52.2292 169.797 52.5885 169.891 52.9531L169.922 53.0469V53.0156C169.953 53.0885 169.979 53.1667 170 53.25C170.031 53.3229 170.047 53.401 170.047 53.4844C170.047 53.599 170.016 53.6927 169.953 53.7656C169.901 53.8385 169.833 53.8958 169.75 53.9375C169.667 53.9792 169.573 54.0052 169.469 54.0156C169.375 54.026 169.286 54.0312 169.203 54.0312C168.859 54.0312 168.583 53.9948 168.375 53.9219C168.177 53.8385 168.016 53.7292 167.891 53.5938C167.766 53.4479 167.672 53.276 167.609 53.0781C167.557 52.8802 167.51 52.6615 167.469 52.4219L167.422 52.1406C167.38 51.9948 167.354 51.8385 167.344 51.6719C167.333 51.5885 167.323 51.5521 167.312 51.5625C167.312 51.5625 167.307 51.5208 167.297 51.4375C167.151 51.6979 166.979 51.9792 166.781 52.2812C166.594 52.5729 166.375 52.849 166.125 53.1094C165.885 53.3594 165.625 53.5729 165.344 53.75C165.062 53.9167 164.76 54 164.438 54C163.99 54 163.641 53.8646 163.391 53.5938C163.151 53.3229 162.974 52.9948 162.859 52.6094C162.745 52.2135 162.677 51.8073 162.656 51.3906C162.635 50.9635 162.625 50.5938 162.625 50.2812C162.625 49.0938 162.661 47.9167 162.734 46.75C162.818 45.5833 162.906 44.4115 163 43.2344C163 43.2031 163 43.1615 163 43.1094C163.01 43.0573 163.016 43.0156 163.016 42.9844C163.026 42.8385 163.036 42.7031 163.047 42.5781C163.057 42.4531 163.083 42.3333 163.125 42.2188V42.2344C163.167 42.0677 163.224 41.9479 163.297 41.875C163.38 41.8021 163.505 41.7656 163.672 41.7656C163.828 41.7656 163.984 41.7969 164.141 41.8594C164.297 41.9115 164.438 41.9896 164.562 42.0938C164.688 42.1875 164.786 42.3021 164.859 42.4375C164.943 42.5729 164.984 42.724 164.984 42.8906C164.984 42.974 164.984 43.0729 164.984 43.1875C164.984 43.3021 164.979 43.401 164.969 43.4844C164.969 43.5573 164.964 43.651 164.953 43.7656C164.953 43.8698 164.953 43.9583 164.953 44.0312C164.87 45.0312 164.807 46.026 164.766 47.0156C164.724 47.9948 164.703 48.9896 164.703 50C164.703 50.2812 164.703 50.5625 164.703 50.8438C164.714 51.125 164.745 51.4062 164.797 51.6875C165.141 51.25 165.438 50.6927 165.688 50.0156C165.938 49.3281 166.146 48.6042 166.312 47.8438C166.49 47.0729 166.63 46.3125 166.734 45.5625C166.849 44.8021 166.932 44.1302 166.984 43.5469C166.984 43.5156 166.984 43.4792 166.984 43.4375C166.995 43.3958 167 43.3594 167 43.3281C167.01 43.2135 167.021 43.1042 167.031 43C167.042 42.8958 167.078 42.7969 167.141 42.7031C167.141 42.6094 167.146 42.5104 167.156 42.4062C167.167 42.3021 167.193 42.2083 167.234 42.125C167.276 42.0312 167.333 41.9583 167.406 41.9062C167.49 41.8542 167.604 41.8281 167.75 41.8281C168.167 41.8281 168.495 41.9583 168.734 42.2188C168.974 42.4688 169.104 42.7917 169.125 43.1875C169.177 43.2708 169.214 43.3542 169.234 43.4375C169.266 43.5104 169.281 43.5938 169.281 43.6875ZM175.047 54.4531C175.047 54.599 175.01 54.7188 174.938 54.8125C174.865 54.9062 174.771 54.9792 174.656 55.0312C174.552 55.0938 174.432 55.1354 174.297 55.1562C174.172 55.1875 174.057 55.2031 173.953 55.2031C173.589 55.2031 173.271 55.099 173 54.8906C172.729 54.6823 172.495 54.4115 172.297 54.0781C172.099 53.7552 171.938 53.3854 171.812 52.9688C171.688 52.5417 171.583 52.1198 171.5 51.7031C171.417 51.276 171.354 50.8698 171.312 50.4844C171.271 50.0885 171.24 49.75 171.219 49.4688C171.125 48.5 171.057 47.5156 171.016 46.5156C170.984 45.5156 170.969 44.526 170.969 43.5469C170.969 40.8698 171.062 38.2188 171.25 35.5938C171.25 35.5521 171.25 35.5052 171.25 35.4531C171.26 35.401 171.266 35.349 171.266 35.2969C171.276 35.0781 171.286 34.8281 171.297 34.5469C171.307 34.2552 171.323 33.9688 171.344 33.6875C171.365 33.4062 171.385 33.151 171.406 32.9219C171.438 32.6823 171.474 32.5156 171.516 32.4219V32.4375C171.557 32.2917 171.615 32.1823 171.688 32.1094C171.76 32.0365 171.885 32 172.062 32C172.438 32 172.755 32.125 173.016 32.375C173.276 32.625 173.406 32.9375 173.406 33.3125C173.406 33.3958 173.401 33.4792 173.391 33.5625C173.391 33.6354 173.385 33.7083 173.375 33.7812C173.365 33.8542 173.354 33.9271 173.344 34C173.344 34.0625 173.344 34.1198 173.344 34.1719C173.312 34.5781 173.286 34.9844 173.266 35.3906C173.255 35.7865 173.24 36.1875 173.219 36.5938C173.167 37.4896 173.125 38.3854 173.094 39.2812C173.073 40.1667 173.062 41.0625 173.062 41.9688C173.062 42.3542 173.068 42.8594 173.078 43.4844C173.089 44.1094 173.109 44.7917 173.141 45.5312C173.172 46.2604 173.214 47.0156 173.266 47.7969C173.328 48.5781 173.406 49.3229 173.5 50.0312C173.594 50.7396 173.703 51.3802 173.828 51.9531C173.964 52.526 174.12 52.9688 174.297 53.2812C174.391 53.3229 174.479 53.3906 174.562 53.4844C174.656 53.5677 174.734 53.6667 174.797 53.7812C174.87 53.8854 174.927 53.9948 174.969 54.1094C175.021 54.2344 175.047 54.349 175.047 54.4531ZM179.453 54.4531C179.453 54.599 179.417 54.7188 179.344 54.8125C179.271 54.9062 179.177 54.9792 179.062 55.0312C178.958 55.0938 178.839 55.1354 178.703 55.1562C178.578 55.1875 178.464 55.2031 178.359 55.2031C177.995 55.2031 177.677 55.099 177.406 54.8906C177.135 54.6823 176.901 54.4115 176.703 54.0781C176.505 53.7552 176.344 53.3854 176.219 52.9688C176.094 52.5417 175.99 52.1198 175.906 51.7031C175.823 51.276 175.76 50.8698 175.719 50.4844C175.677 50.0885 175.646 49.75 175.625 49.4688C175.531 48.5 175.464 47.5156 175.422 46.5156C175.391 45.5156 175.375 44.526 175.375 43.5469C175.375 40.8698 175.469 38.2188 175.656 35.5938C175.656 35.5521 175.656 35.5052 175.656 35.4531C175.667 35.401 175.672 35.349 175.672 35.2969C175.682 35.0781 175.693 34.8281 175.703 34.5469C175.714 34.2552 175.729 33.9688 175.75 33.6875C175.771 33.4062 175.792 33.151 175.812 32.9219C175.844 32.6823 175.88 32.5156 175.922 32.4219V32.4375C175.964 32.2917 176.021 32.1823 176.094 32.1094C176.167 32.0365 176.292 32 176.469 32C176.844 32 177.161 32.125 177.422 32.375C177.682 32.625 177.812 32.9375 177.812 33.3125C177.812 33.3958 177.807 33.4792 177.797 33.5625C177.797 33.6354 177.792 33.7083 177.781 33.7812C177.771 33.8542 177.76 33.9271 177.75 34C177.75 34.0625 177.75 34.1198 177.75 34.1719C177.719 34.5781 177.693 34.9844 177.672 35.3906C177.661 35.7865 177.646 36.1875 177.625 36.5938C177.573 37.4896 177.531 38.3854 177.5 39.2812C177.479 40.1667 177.469 41.0625 177.469 41.9688C177.469 42.3542 177.474 42.8594 177.484 43.4844C177.495 44.1094 177.516 44.7917 177.547 45.5312C177.578 46.2604 177.62 47.0156 177.672 47.7969C177.734 48.5781 177.812 49.3229 177.906 50.0312C178 50.7396 178.109 51.3802 178.234 51.9531C178.37 52.526 178.526 52.9688 178.703 53.2812C178.797 53.3229 178.885 53.3906 178.969 53.4844C179.062 53.5677 179.141 53.6667 179.203 53.7812C179.276 53.8854 179.333 53.9948 179.375 54.1094C179.427 54.2344 179.453 54.349 179.453 54.4531ZM185.469 41.9062C185.469 42.0521 185.438 42.1875 185.375 42.3125C185.312 42.4896 185.25 42.6354 185.188 42.75C185.135 42.8646 185.068 42.9531 184.984 43.0156C184.901 43.0781 184.797 43.125 184.672 43.1562C184.557 43.1771 184.406 43.1875 184.219 43.1875H179.969C179.896 43.1875 179.802 43.1875 179.688 43.1875C179.583 43.1771 179.474 43.1615 179.359 43.1406C179.255 43.1094 179.161 43.0677 179.078 43.0156C179.005 42.9531 178.969 42.8646 178.969 42.75C178.969 42.5 179.057 42.2812 179.234 42.0938C179.411 41.8958 179.625 41.7708 179.875 41.7188C180.083 41.6875 180.292 41.6719 180.5 41.6719C180.708 41.6615 180.917 41.6458 181.125 41.625C181.719 41.5938 182.312 41.5625 182.906 41.5312C183.5 41.4896 184.104 41.4688 184.719 41.4688C184.792 41.4688 184.87 41.474 184.953 41.4844C185.047 41.4844 185.13 41.5 185.203 41.5312C185.286 41.5521 185.349 41.5938 185.391 41.6562C185.443 41.7188 185.469 41.8021 185.469 41.9062ZM195.453 49.0625C195.453 49.8333 195.328 50.5625 195.078 51.25C194.828 51.9375 194.469 52.5417 194 53.0625C193.542 53.5729 192.984 53.9792 192.328 54.2812C191.672 54.5938 190.943 54.75 190.141 54.75C189.432 54.75 188.776 54.6354 188.172 54.4062C187.578 54.1875 187.062 53.875 186.625 53.4688C186.188 53.0625 185.844 52.5677 185.594 51.9844C185.354 51.401 185.234 50.75 185.234 50.0312C185.234 49.8854 185.24 49.7031 185.25 49.4844C185.26 49.2656 185.292 49.0573 185.344 48.8594C185.406 48.651 185.49 48.4792 185.594 48.3438C185.708 48.1979 185.87 48.125 186.078 48.125C186.245 48.125 186.427 48.1615 186.625 48.2344C186.833 48.2969 187.026 48.3854 187.203 48.5C187.38 48.6146 187.526 48.7552 187.641 48.9219C187.766 49.0781 187.828 49.25 187.828 49.4375V50.3438C187.828 51.0625 188.021 51.651 188.406 52.1094C188.802 52.5573 189.37 52.7812 190.109 52.7812C190.63 52.7812 191.078 52.6615 191.453 52.4219C191.828 52.1823 192.13 51.875 192.359 51.5C192.599 51.125 192.771 50.7083 192.875 50.25C192.99 49.7812 193.047 49.3229 193.047 48.875C193.047 48 192.865 47.151 192.5 46.3281C192.146 45.5052 191.698 44.7031 191.156 43.9219C190.615 43.1302 190.026 42.3542 189.391 41.5938C188.755 40.8333 188.167 40.0781 187.625 39.3281C187.083 38.5781 186.63 37.8281 186.266 37.0781C185.911 36.3281 185.734 35.5625 185.734 34.7812C185.734 34.1458 185.859 33.599 186.109 33.1406C186.37 32.6719 186.708 32.2917 187.125 32C187.552 31.6979 188.031 31.4792 188.562 31.3438C189.104 31.1979 189.661 31.125 190.234 31.125C190.932 31.125 191.557 31.224 192.109 31.4219C192.661 31.6198 193.13 31.9062 193.516 32.2812C193.901 32.6562 194.193 33.1198 194.391 33.6719C194.599 34.2135 194.703 34.8333 194.703 35.5312C194.703 35.6354 194.698 35.7656 194.688 35.9219C194.677 36.0781 194.651 36.2344 194.609 36.3906C194.568 36.5365 194.505 36.6667 194.422 36.7812C194.339 36.8854 194.224 36.9375 194.078 36.9375C193.87 36.9375 193.661 36.8854 193.453 36.7812C193.276 36.6875 193.13 36.599 193.016 36.5156C192.911 36.4219 192.828 36.3229 192.766 36.2188C192.703 36.1042 192.656 35.9792 192.625 35.8438C192.594 35.7083 192.568 35.5417 192.547 35.3438C192.495 34.9688 192.427 34.6302 192.344 34.3281C192.26 34.026 192.135 33.7708 191.969 33.5625C191.802 33.3542 191.583 33.1927 191.312 33.0781C191.042 32.9635 190.693 32.9062 190.266 32.9062C189.964 32.9062 189.672 32.9375 189.391 33C189.12 33.0625 188.88 33.1667 188.672 33.3125C188.474 33.4583 188.312 33.651 188.188 33.8906C188.073 34.1198 188.016 34.4062 188.016 34.75C188.016 35.2292 188.12 35.7188 188.328 36.2188C188.547 36.7188 188.828 37.2292 189.172 37.75C189.526 38.2708 189.922 38.8073 190.359 39.3594C190.807 39.901 191.266 40.4635 191.734 41.0469C192.203 41.6302 192.656 42.2344 193.094 42.8594C193.542 43.474 193.938 44.1146 194.281 44.7812C194.635 45.4479 194.917 46.1406 195.125 46.8594C195.344 47.5677 195.453 48.3021 195.453 49.0625ZM199.719 53.6094C199.719 53.724 199.693 53.8229 199.641 53.9062C199.589 53.9792 199.521 54.0365 199.438 54.0781C199.365 54.1198 199.281 54.1458 199.188 54.1562C199.104 54.1771 199.021 54.1875 198.938 54.1875C198.823 54.1875 198.688 54.1719 198.531 54.1406C198.385 54.1198 198.24 54.0833 198.094 54.0312C197.948 53.9792 197.812 53.9167 197.688 53.8438C197.573 53.7604 197.484 53.6615 197.422 53.5469C197.359 53.4427 197.302 53.25 197.25 52.9688C197.208 52.6771 197.172 52.3438 197.141 51.9688C197.109 51.5833 197.083 51.1771 197.062 50.75C197.042 50.3125 197.021 49.8958 197 49.5C196.99 49.1042 196.979 48.75 196.969 48.4375C196.969 48.1146 196.969 47.875 196.969 47.7188C196.969 46.9896 196.979 46.2865 197 45.6094C197.031 44.9219 197.062 44.2188 197.094 43.5C197.042 43.5 196.99 43.5052 196.938 43.5156C196.885 43.526 196.833 43.5312 196.781 43.5312C196.646 43.5521 196.505 43.5677 196.359 43.5781C196.224 43.5885 196.083 43.5938 195.938 43.5938C195.76 43.5938 195.604 43.5625 195.469 43.5C195.333 43.4375 195.266 43.2969 195.266 43.0781C195.266 42.8177 195.323 42.6094 195.438 42.4531C195.552 42.2969 195.698 42.1771 195.875 42.0938C196.052 42 196.245 41.9375 196.453 41.9062C196.661 41.8646 196.865 41.8333 197.062 41.8125C197.094 41.8125 197.115 41.8125 197.125 41.8125C197.135 41.8021 197.156 41.7969 197.188 41.7969C197.198 41.6719 197.208 41.5208 197.219 41.3438C197.229 41.1562 197.24 40.9531 197.25 40.7344C197.26 40.3906 197.276 40.026 197.297 39.6406C197.318 39.2448 197.339 38.8698 197.359 38.5156C197.38 38.151 197.406 37.8333 197.438 37.5625C197.469 37.2812 197.5 37.0833 197.531 36.9688C197.583 36.8333 197.641 36.724 197.703 36.6406C197.776 36.5573 197.906 36.5156 198.094 36.5156C198.51 36.5156 198.833 36.651 199.062 36.9219C199.292 37.1927 199.406 37.526 199.406 37.9219C199.406 38.3802 199.391 38.8385 199.359 39.2969C199.339 39.7552 199.318 40.2188 199.297 40.6875L199.25 41.4844C199.51 41.4531 199.771 41.4062 200.031 41.3438C200.281 41.2917 200.531 41.2448 200.781 41.2031C201.042 41.1615 201.292 41.1406 201.531 41.1406C201.74 41.1406 201.901 41.1979 202.016 41.3125C202.13 41.4167 202.188 41.5729 202.188 41.7812C202.188 42.0104 202.146 42.2344 202.062 42.4531C201.979 42.6719 201.833 42.8385 201.625 42.9531H201.641C201.599 42.974 201.474 43.0052 201.266 43.0469C201.057 43.0781 200.818 43.1094 200.547 43.1406C200.286 43.1719 200.026 43.2031 199.766 43.2344C199.516 43.2656 199.328 43.2865 199.203 43.2969H199.188C199.167 43.8802 199.151 44.4583 199.141 45.0312C199.13 45.5938 199.125 46.1667 199.125 46.75C199.125 47.5521 199.146 48.4062 199.188 49.3125C199.24 50.2083 199.323 51.0625 199.438 51.875L199.562 52.5781C199.604 52.7552 199.641 52.9323 199.672 53.1094C199.703 53.276 199.719 53.4427 199.719 53.6094ZM208.594 53.7969C208.594 54.0052 208.542 54.1458 208.438 54.2188C208.333 54.3021 208.188 54.3438 208 54.3438C207.51 54.3438 207.156 54.2135 206.938 53.9531C206.729 53.6927 206.573 53.349 206.469 52.9219C206.438 52.776 206.406 52.6302 206.375 52.4844C206.344 52.3281 206.318 52.1771 206.297 52.0312C206.276 51.8958 206.255 51.8021 206.234 51.75C206.214 51.6979 206.193 51.599 206.172 51.4531C206.047 51.7552 205.891 52.0729 205.703 52.4062C205.526 52.7292 205.318 53.0312 205.078 53.3125C204.839 53.5833 204.568 53.8073 204.266 53.9844C203.974 54.1615 203.651 54.25 203.297 54.25C202.922 54.25 202.609 54.1615 202.359 53.9844C202.109 53.7969 201.911 53.5677 201.766 53.2969C201.63 53.0156 201.531 52.7083 201.469 52.375C201.417 52.0417 201.391 51.724 201.391 51.4219C201.391 50.7135 201.458 49.9479 201.594 49.125C201.74 48.2917 201.938 47.4635 202.188 46.6406C202.438 45.8073 202.729 45.0104 203.062 44.25C203.396 43.4792 203.76 42.8073 204.156 42.2344V42.25L204.25 42.1094C204.365 41.9531 204.495 41.7865 204.641 41.6094C204.797 41.4219 204.979 41.3281 205.188 41.3281C205.385 41.3281 205.557 41.4167 205.703 41.5938C205.849 41.7604 205.953 41.9375 206.016 42.125C206.286 42.1771 206.505 42.2448 206.672 42.3281C206.839 42.401 206.969 42.4948 207.062 42.6094C207.156 42.724 207.219 42.8594 207.25 43.0156C207.281 43.1615 207.297 43.3229 207.297 43.5C207.297 43.5729 207.297 43.651 207.297 43.7344C207.297 43.8177 207.292 43.901 207.281 43.9844C207.271 44.0677 207.266 44.1667 207.266 44.2812C207.266 44.3958 207.266 44.5 207.266 44.5938C207.266 44.6979 207.281 44.8333 207.312 45C207.354 45.1667 207.396 45.3385 207.438 45.5156L207.547 46.0938C207.599 46.3958 207.641 46.7396 207.672 47.125C207.714 47.5104 207.76 47.8958 207.812 48.2812C207.854 48.6771 207.896 49.0625 207.938 49.4375C207.979 49.8021 208.021 50.1406 208.062 50.4531L208.438 52.7656L208.484 53.0312C208.505 53.1667 208.526 53.2917 208.547 53.4062C208.578 53.5208 208.594 53.651 208.594 53.7969ZM205.016 44.8125C205.016 44.7917 205.01 44.7604 205 44.7188C204.99 44.6667 204.979 44.6146 204.969 44.5625C204.729 45.0729 204.516 45.6302 204.328 46.2344C204.151 46.8281 204 47.4375 203.875 48.0625C203.76 48.6771 203.672 49.2969 203.609 49.9219C203.557 50.5365 203.531 51.1198 203.531 51.6719C203.531 51.724 203.531 51.7708 203.531 51.8125C203.531 51.8542 203.536 51.8958 203.547 51.9375V51.9531C203.797 51.5677 204.01 51.0625 204.188 50.4375C204.375 49.8021 204.531 49.1406 204.656 48.4531C204.781 47.7552 204.87 47.0833 204.922 46.4375C204.984 45.7812 205.016 45.2396 205.016 44.8125ZM215.781 50.5C215.781 50.7188 215.745 50.9427 215.672 51.1719C215.599 51.401 215.516 51.6198 215.422 51.8281C215.297 52.1302 215.146 52.4271 214.969 52.7188C214.792 53 214.589 53.2552 214.359 53.4844C214.13 53.7031 213.87 53.8802 213.578 54.0156C213.286 54.151 212.958 54.2188 212.594 54.2188C211.948 54.2188 211.411 54.0573 210.984 53.7344C210.557 53.4115 210.219 53.0052 209.969 52.5156C209.719 52.026 209.542 51.4896 209.438 50.9062C209.344 50.3229 209.297 49.7708 209.297 49.25C209.297 48.8646 209.312 48.4115 209.344 47.8906C209.375 47.3594 209.432 46.8125 209.516 46.25C209.609 45.6875 209.74 45.1302 209.906 44.5781C210.083 44.026 210.307 43.5365 210.578 43.1094C210.849 42.6719 211.177 42.3177 211.562 42.0469C211.958 41.776 212.427 41.6406 212.969 41.6406C213.083 41.6406 213.25 41.6615 213.469 41.7031C213.688 41.7448 213.901 41.8073 214.109 41.8906C214.328 41.9635 214.516 42.0677 214.672 42.2031C214.839 42.3281 214.922 42.474 214.922 42.6406C214.922 42.7969 214.849 42.9167 214.703 43C214.568 43.0833 214.401 43.1458 214.203 43.1875C214.016 43.2188 213.818 43.2396 213.609 43.25C213.411 43.25 213.25 43.25 213.125 43.25H212.844C212.552 43.5104 212.312 43.8958 212.125 44.4062C211.938 44.9062 211.792 45.4427 211.688 46.0156C211.583 46.5885 211.51 47.1562 211.469 47.7188C211.427 48.2708 211.406 48.724 211.406 49.0781C211.406 49.5781 211.443 50.0729 211.516 50.5625C211.599 51.0417 211.76 51.4948 212 51.9219C212.052 52.0156 212.125 52.125 212.219 52.25C212.323 52.3646 212.438 52.4219 212.562 52.4219C212.656 52.4219 212.75 52.3438 212.844 52.1875C212.948 52.0312 213.042 51.849 213.125 51.6406C213.208 51.4323 213.276 51.2292 213.328 51.0312C213.38 50.8333 213.417 50.6875 213.438 50.5938C213.448 50.5521 213.453 50.5052 213.453 50.4531C213.453 50.401 213.453 50.349 213.453 50.2969C213.453 50.2031 213.453 50.1146 213.453 50.0312C213.464 49.9375 213.479 49.8646 213.5 49.8125C213.573 49.6354 213.667 49.5156 213.781 49.4531C213.906 49.3906 214.057 49.3594 214.234 49.3594C214.391 49.3594 214.557 49.3802 214.734 49.4219C214.911 49.4635 215.078 49.5312 215.234 49.625C215.391 49.7188 215.521 49.8385 215.625 49.9844C215.729 50.1302 215.781 50.3021 215.781 50.5ZM224.156 54.2344C224.156 54.349 224.094 54.4531 223.969 54.5469C223.844 54.6406 223.698 54.7188 223.531 54.7812C223.375 54.8438 223.214 54.8906 223.047 54.9219C222.88 54.9635 222.75 54.9844 222.656 54.9844C222.479 54.9844 222.318 54.9479 222.172 54.875C222.026 54.8125 221.891 54.7292 221.766 54.625C221.641 54.5208 221.521 54.4062 221.406 54.2812C221.302 54.1562 221.203 54.0312 221.109 53.9062C220.745 53.4583 220.37 52.9583 219.984 52.4062C219.599 51.8542 219.255 51.3281 218.953 50.8281C218.953 50.8698 218.958 50.9219 218.969 50.9844C218.979 51.0469 218.984 51.099 218.984 51.1406C219.005 51.3594 219.021 51.5781 219.031 51.7969C219.052 52.0052 219.078 52.2188 219.109 52.4375C219.12 52.5625 219.13 52.6875 219.141 52.8125C219.161 52.9271 219.182 53.0521 219.203 53.1875C219.224 53.3542 219.245 53.5208 219.266 53.6875C219.286 53.8542 219.297 54.026 219.297 54.2031C219.297 54.4219 219.234 54.5677 219.109 54.6406C218.984 54.724 218.818 54.7656 218.609 54.7656C218.464 54.7656 218.307 54.7552 218.141 54.7344C217.974 54.7135 217.812 54.6719 217.656 54.6094C217.5 54.5469 217.359 54.4635 217.234 54.3594C217.109 54.2552 217.016 54.1198 216.953 53.9531C216.922 53.8281 216.891 53.5938 216.859 53.25C216.828 52.9062 216.802 52.526 216.781 52.1094C216.76 51.6823 216.74 51.2552 216.719 50.8281C216.708 50.401 216.698 50.0469 216.688 49.7656C216.688 49.7031 216.682 49.651 216.672 49.6094C216.672 49.5677 216.672 49.526 216.672 49.4844C216.589 49.4115 216.516 49.3229 216.453 49.2188C216.391 49.1146 216.359 49.0156 216.359 48.9219C216.359 48.7865 216.385 48.6667 216.438 48.5625C216.49 48.4583 216.547 48.3594 216.609 48.2656C216.547 46.9844 216.516 45.7083 216.516 44.4375C216.516 43.3854 216.526 42.3438 216.547 41.3125C216.578 40.2708 216.604 39.2292 216.625 38.1875L216.672 36.0938C216.682 35.9896 216.688 35.8542 216.688 35.6875C216.688 35.5208 216.688 35.3438 216.688 35.1562C216.688 34.9271 216.688 34.6875 216.688 34.4375C216.688 34.1875 216.693 33.9531 216.703 33.7344C216.714 33.5156 216.724 33.3177 216.734 33.1406C216.745 32.9635 216.766 32.8333 216.797 32.75V32.7656C216.839 32.6094 216.896 32.4948 216.969 32.4219C217.042 32.349 217.167 32.3125 217.344 32.3125C217.781 32.3125 218.12 32.4427 218.359 32.7031C218.599 32.9635 218.719 33.3125 218.719 33.75C218.719 34.4479 218.714 35.1458 218.703 35.8438C218.703 36.5312 218.698 37.224 218.688 37.9219C218.677 38.6198 218.667 39.3177 218.656 40.0156C218.656 40.7031 218.656 41.3958 218.656 42.0938C218.656 42.3438 218.656 42.599 218.656 42.8594C218.667 43.1094 218.672 43.3646 218.672 43.625C218.682 43.8333 218.688 44.0469 218.688 44.2656C218.688 44.4844 218.688 44.7135 218.688 44.9531L220.375 42.2656V42.2812L220.516 42C220.547 41.9479 220.562 41.9115 220.562 41.8906C220.573 41.8698 220.583 41.8438 220.594 41.8125C220.615 41.7708 220.651 41.7083 220.703 41.625C220.766 41.5417 220.87 41.4167 221.016 41.25C221.068 41.1979 221.13 41.151 221.203 41.1094C221.276 41.0677 221.37 41.0469 221.484 41.0469C221.599 41.0469 221.714 41.0833 221.828 41.1562C221.953 41.2188 222.062 41.3021 222.156 41.4062C222.25 41.5104 222.328 41.625 222.391 41.75C222.453 41.875 222.484 41.9896 222.484 42.0938C222.484 42.1771 222.438 42.3229 222.344 42.5312C222.25 42.7292 222.125 42.974 221.969 43.2656C221.823 43.5573 221.656 43.875 221.469 44.2188C221.281 44.5521 221.083 44.8906 220.875 45.2344C220.677 45.5781 220.484 45.9115 220.297 46.2344C220.109 46.5573 219.943 46.8438 219.797 47.0938L219.391 47.75C219.63 48.1667 219.906 48.6302 220.219 49.1406C220.542 49.6406 220.88 50.1458 221.234 50.6562C221.589 51.1667 221.948 51.6562 222.312 52.125C222.688 52.5938 223.052 53.0052 223.406 53.3594L223.562 53.4844C223.688 53.5781 223.818 53.6927 223.953 53.8281C224.089 53.9531 224.156 54.0885 224.156 54.2344ZM167.891 67.6875C167.891 68.9583 167.88 70.2292 167.859 71.5C167.839 72.7708 167.786 74.0417 167.703 75.3125C167.63 76.5729 167.521 77.8333 167.375 79.0938C167.229 80.3542 167.036 81.6146 166.797 82.875L166.547 84.125C166.578 84.1979 166.63 84.3177 166.703 84.4844C166.786 84.6406 166.87 84.8125 166.953 85C167.036 85.1771 167.109 85.3438 167.172 85.5C167.234 85.6562 167.266 85.7604 167.266 85.8125C167.266 85.9479 167.208 86.0521 167.094 86.125C166.99 86.1979 166.865 86.25 166.719 86.2812C166.573 86.3229 166.422 86.349 166.266 86.3594C166.109 86.3698 165.984 86.375 165.891 86.375C165.776 86.375 165.667 86.3698 165.562 86.3594C165.458 86.3594 165.359 86.3438 165.266 86.3125C165.026 86.2292 164.865 86.1354 164.781 86.0312C164.698 85.9271 164.599 85.7708 164.484 85.5625C164.047 84.7292 163.661 83.8698 163.328 82.9844C163.005 82.0885 162.719 81.1823 162.469 80.2656C162.219 79.3385 161.995 78.4115 161.797 77.4844C161.599 76.5469 161.411 75.6146 161.234 74.6875C160.859 78.125 160.266 81.5312 159.453 84.9062C159.547 85.0938 159.651 85.3021 159.766 85.5312C159.891 85.75 159.953 85.9688 159.953 86.1875C159.953 86.3333 159.906 86.4479 159.812 86.5312C159.719 86.6146 159.599 86.6719 159.453 86.7031C159.318 86.7344 159.172 86.75 159.016 86.75C158.87 86.7604 158.745 86.7604 158.641 86.75C158.609 86.7708 158.578 86.7865 158.547 86.7969C158.516 86.8073 158.474 86.8125 158.422 86.8125C158.057 86.8125 157.766 86.7031 157.547 86.4844C157.339 86.2656 157.172 86 157.047 85.6875C156.682 84.7396 156.359 83.7344 156.078 82.6719C155.797 81.6094 155.552 80.5312 155.344 79.4375C155.135 78.3438 154.953 77.2552 154.797 76.1719C154.651 75.0781 154.526 74.0208 154.422 73C154.276 71.7604 154.135 70.526 154 69.2969C153.865 68.0677 153.797 66.8229 153.797 65.5625C153.797 65.3438 153.828 65.1771 153.891 65.0625C153.953 64.9375 154.109 64.875 154.359 64.875C154.745 64.875 155.042 64.9375 155.25 65.0625C155.469 65.1771 155.63 65.3385 155.734 65.5469C155.849 65.7448 155.922 65.9792 155.953 66.25C155.995 66.5208 156.026 66.8125 156.047 67.125C156.255 69.4375 156.51 71.7396 156.812 74.0312C157.115 76.3229 157.547 78.5938 158.109 80.8438C158.391 79.3958 158.604 77.9479 158.75 76.5C158.906 75.0417 159.057 73.5833 159.203 72.125C159.234 71.7396 159.255 71.349 159.266 70.9531C159.276 70.5573 159.292 70.1615 159.312 69.7656C159.344 69.3594 159.38 68.9583 159.422 68.5625C159.474 68.1667 159.557 67.7812 159.672 67.4062C159.766 67.0729 159.917 66.8177 160.125 66.6406C160.333 66.4635 160.62 66.375 160.984 66.375C161.339 66.375 161.615 66.4531 161.812 66.6094C162.01 66.7656 162.161 66.9635 162.266 67.2031C162.38 67.4323 162.458 67.6927 162.5 67.9844C162.542 68.276 162.578 68.5521 162.609 68.8125C162.859 70.6979 163.182 72.5625 163.578 74.4062C163.984 76.25 164.464 78.0833 165.016 79.9062C165.224 78.2917 165.354 76.6823 165.406 75.0781C165.458 73.474 165.484 71.8542 165.484 70.2188C165.484 69.2917 165.474 68.3594 165.453 67.4219C165.443 66.4844 165.38 65.5417 165.266 64.5938C165.266 64.4792 165.255 64.375 165.234 64.2812C165.214 64.1875 165.203 64.0833 165.203 63.9688C165.203 63.75 165.271 63.5938 165.406 63.5C165.542 63.3958 165.714 63.3438 165.922 63.3438C166.057 63.3438 166.203 63.3594 166.359 63.3906C166.526 63.4115 166.688 63.4479 166.844 63.5C167.01 63.5417 167.161 63.599 167.297 63.6719C167.443 63.7448 167.557 63.8333 167.641 63.9375C167.682 63.9896 167.714 64.1042 167.734 64.2812C167.766 64.4583 167.792 64.6719 167.812 64.9219C167.833 65.1719 167.849 65.4375 167.859 65.7188C167.87 66 167.875 66.2708 167.875 66.5312C167.885 66.7917 167.891 67.026 167.891 67.2344C167.891 67.4427 167.891 67.5938 167.891 67.6875ZM175.531 83.1406C175.531 83.4531 175.443 83.776 175.266 84.1094C175.099 84.4427 174.88 84.75 174.609 85.0312C174.339 85.3021 174.026 85.526 173.672 85.7031C173.328 85.8802 172.984 85.9688 172.641 85.9688C172.151 85.9688 171.729 85.875 171.375 85.6875C171.021 85.4896 170.714 85.2292 170.453 84.9062C170.193 84.5729 169.979 84.1979 169.812 83.7812C169.656 83.3646 169.531 82.9375 169.438 82.5C169.344 82.0521 169.276 81.6094 169.234 81.1719C169.203 80.724 169.188 80.3177 169.188 79.9531C169.188 79.6406 169.203 79.2708 169.234 78.8438C169.276 78.4167 169.339 77.974 169.422 77.5156C169.516 77.0573 169.641 76.6042 169.797 76.1562C169.953 75.7083 170.146 75.3073 170.375 74.9531C170.615 74.599 170.896 74.3125 171.219 74.0938C171.552 73.875 171.932 73.7656 172.359 73.7656C172.693 73.7656 172.99 73.8333 173.25 73.9688C173.521 74.1042 173.745 74.2865 173.922 74.5156C174.109 74.7344 174.25 74.9896 174.344 75.2812C174.448 75.5729 174.5 75.875 174.5 76.1875C174.5 76.5938 174.406 77.0365 174.219 77.5156C174.031 77.9948 173.786 78.4583 173.484 78.9062C173.193 79.3542 172.859 79.7604 172.484 80.125C172.12 80.4792 171.755 80.75 171.391 80.9375C171.411 81.125 171.453 81.401 171.516 81.7656C171.578 82.1198 171.661 82.474 171.766 82.8281C171.88 83.1823 172.01 83.4896 172.156 83.75C172.312 84.0104 172.495 84.1406 172.703 84.1406C172.807 84.1406 172.896 84.1094 172.969 84.0469C173.052 83.9844 173.125 83.901 173.188 83.7969C173.25 83.6927 173.302 83.5781 173.344 83.4531C173.396 83.3281 173.443 83.2083 173.484 83.0938L173.578 82.875C173.599 82.8438 173.609 82.8229 173.609 82.8125C173.62 82.8021 173.63 82.7865 173.641 82.7656C173.714 82.6302 173.781 82.5052 173.844 82.3906C173.917 82.276 174.016 82.1771 174.141 82.0938H174.125C174.167 82.0521 174.208 82.0312 174.25 82.0312C174.302 82.0208 174.349 82.0156 174.391 82.0156C174.505 82.0156 174.63 82.0521 174.766 82.125C174.901 82.1979 175.026 82.2917 175.141 82.4062C175.255 82.5104 175.349 82.6302 175.422 82.7656C175.495 82.8906 175.531 83.0156 175.531 83.1406ZM172.438 76.25C172.438 76.1458 172.432 76.0365 172.422 75.9219C172.411 75.8073 172.385 75.7083 172.344 75.625C172.198 75.8021 172.068 76.0156 171.953 76.2656C171.849 76.5052 171.76 76.7604 171.688 77.0312C171.615 77.2917 171.552 77.5573 171.5 77.8281C171.458 78.099 171.427 78.349 171.406 78.5781C171.677 78.2552 171.917 77.8906 172.125 77.4844C172.333 77.0677 172.438 76.6562 172.438 76.25ZM183.438 77.1719C183.438 77.599 183.417 78.0729 183.375 78.5938C183.333 79.1042 183.271 79.6354 183.188 80.1875C183.104 80.7396 182.99 81.2969 182.844 81.8594C182.708 82.4115 182.542 82.9427 182.344 83.4531C182.146 83.9635 181.911 84.4375 181.641 84.875C181.38 85.3021 181.083 85.6615 180.75 85.9531C180.51 86.1615 180.24 86.3281 179.938 86.4531C179.646 86.5885 179.344 86.6562 179.031 86.6562C178.917 86.6562 178.797 86.6354 178.672 86.5938C178.547 86.5625 178.453 86.4792 178.391 86.3438C178.161 86.3229 177.932 86.276 177.703 86.2031C177.484 86.1406 177.302 85.9948 177.156 85.7656C177.125 85.6927 177.099 85.6042 177.078 85.5C177.057 85.3958 177.036 85.2865 177.016 85.1719C177.005 85.1198 176.995 85.0729 176.984 85.0312C176.974 84.9792 176.964 84.9323 176.953 84.8906C176.651 83.0156 176.443 81.1406 176.328 79.2656C176.224 77.3906 176.172 75.5 176.172 73.5938C176.172 73.4271 176.172 73.1354 176.172 72.7188C176.172 72.3021 176.172 71.8281 176.172 71.2969C176.182 70.7656 176.188 70.2083 176.188 69.625C176.198 69.0417 176.208 68.4948 176.219 67.9844C176.229 67.474 176.245 67.0365 176.266 66.6719C176.286 66.2969 176.307 66.0573 176.328 65.9531C176.37 65.8073 176.427 65.6875 176.5 65.5938C176.573 65.5 176.698 65.4531 176.875 65.4531C177.365 65.4531 177.714 65.6094 177.922 65.9219C178.141 66.224 178.25 66.599 178.25 67.0469V71.0625C178.25 71.5521 178.25 71.9948 178.25 72.3906C178.25 72.776 178.25 73.1562 178.25 73.5312C178.26 73.8958 178.271 74.276 178.281 74.6719C178.292 75.0573 178.307 75.4896 178.328 75.9688C178.453 75.6875 178.604 75.4115 178.781 75.1406C178.969 74.8698 179.177 74.625 179.406 74.4062C179.635 74.1875 179.891 74.0104 180.172 73.875C180.453 73.7396 180.766 73.6719 181.109 73.6719C181.609 73.6719 182.01 73.7812 182.312 74C182.625 74.2188 182.859 74.5 183.016 74.8438C183.182 75.1771 183.292 75.5521 183.344 75.9688C183.406 76.3854 183.438 76.7865 183.438 77.1719ZM181.281 76.8125C181.281 76.6042 181.271 76.375 181.25 76.125C181.24 75.875 181.177 75.6562 181.062 75.4688C180.969 75.5417 180.885 75.6198 180.812 75.7031C180.75 75.7865 180.682 75.8802 180.609 75.9844L180.578 76.0312V76.0156C180.286 76.4948 180.047 77.0521 179.859 77.6875C179.682 78.3229 179.536 78.9844 179.422 79.6719C179.318 80.349 179.245 81.026 179.203 81.7031C179.161 82.3698 179.141 82.974 179.141 83.5156C179.141 83.6302 179.141 83.8021 179.141 84.0312C179.151 84.25 179.172 84.4323 179.203 84.5781C179.609 84.2344 179.943 83.7344 180.203 83.0781C180.474 82.4115 180.688 81.6979 180.844 80.9375C181.01 80.1667 181.125 79.4115 181.188 78.6719C181.25 77.9323 181.281 77.3125 181.281 76.8125ZM165.078 106.812C165.078 107.927 164.979 109.026 164.781 110.109C164.583 111.182 164.255 112.188 163.797 113.125C163.349 114.062 162.755 114.917 162.016 115.688C161.276 116.448 160.37 117.073 159.297 117.562C159.026 117.688 158.729 117.802 158.406 117.906C158.094 118.01 157.766 118.099 157.422 118.172C157.089 118.245 156.755 118.302 156.422 118.344C156.089 118.385 155.776 118.406 155.484 118.406C155.37 118.406 155.24 118.401 155.094 118.391C154.958 118.391 154.828 118.37 154.703 118.328C154.578 118.297 154.474 118.24 154.391 118.156C154.307 118.073 154.266 117.958 154.266 117.812C154.266 117.688 154.292 117.557 154.344 117.422C154.396 117.286 154.464 117.156 154.547 117.031C154.641 116.906 154.74 116.797 154.844 116.703C154.948 116.599 155.057 116.521 155.172 116.469C155.12 116.385 155.068 116.151 155.016 115.766C154.974 115.38 154.932 114.891 154.891 114.297C154.859 113.703 154.828 113.042 154.797 112.312C154.766 111.573 154.734 110.812 154.703 110.031C154.682 109.25 154.661 108.474 154.641 107.703C154.63 106.922 154.62 106.203 154.609 105.547C154.599 104.891 154.589 104.323 154.578 103.844C154.578 103.354 154.578 103 154.578 102.781C154.578 101.802 154.594 100.839 154.625 99.8906C154.656 98.9427 154.672 97.9792 154.672 97C154.557 97 154.448 96.9688 154.344 96.9062C154.25 96.8438 154.203 96.75 154.203 96.625C154.203 96.4583 154.245 96.3073 154.328 96.1719C154.411 96.026 154.516 95.901 154.641 95.7969C154.776 95.6927 154.922 95.6146 155.078 95.5625C155.245 95.5 155.401 95.4688 155.547 95.4688C155.693 95.4688 155.833 95.4844 155.969 95.5156C156.104 95.5365 156.245 95.5625 156.391 95.5938C157.776 95.9271 159.01 96.4323 160.094 97.1094C161.177 97.7865 162.083 98.6094 162.812 99.5781C163.552 100.547 164.115 101.641 164.5 102.859C164.885 104.078 165.078 105.396 165.078 106.812ZM162.766 106.531C162.766 105.49 162.641 104.51 162.391 103.594C162.141 102.667 161.766 101.823 161.266 101.062C160.776 100.292 160.156 99.6146 159.406 99.0312C158.667 98.4375 157.807 97.9479 156.828 97.5625V97.625C156.828 100.312 156.87 102.979 156.953 105.625C157.047 108.26 157.182 110.917 157.359 113.594C157.391 114 157.417 114.406 157.438 114.812C157.469 115.208 157.516 115.604 157.578 116C158.557 115.677 159.38 115.177 160.047 114.5C160.714 113.823 161.245 113.052 161.641 112.188C162.047 111.312 162.333 110.385 162.5 109.406C162.677 108.417 162.766 107.458 162.766 106.531ZM172.031 115.141C172.031 115.453 171.943 115.776 171.766 116.109C171.599 116.443 171.38 116.75 171.109 117.031C170.839 117.302 170.526 117.526 170.172 117.703C169.828 117.88 169.484 117.969 169.141 117.969C168.651 117.969 168.229 117.875 167.875 117.688C167.521 117.49 167.214 117.229 166.953 116.906C166.693 116.573 166.479 116.198 166.312 115.781C166.156 115.365 166.031 114.938 165.938 114.5C165.844 114.052 165.776 113.609 165.734 113.172C165.703 112.724 165.688 112.318 165.688 111.953C165.688 111.641 165.703 111.271 165.734 110.844C165.776 110.417 165.839 109.974 165.922 109.516C166.016 109.057 166.141 108.604 166.297 108.156C166.453 107.708 166.646 107.307 166.875 106.953C167.115 106.599 167.396 106.312 167.719 106.094C168.052 105.875 168.432 105.766 168.859 105.766C169.193 105.766 169.49 105.833 169.75 105.969C170.021 106.104 170.245 106.286 170.422 106.516C170.609 106.734 170.75 106.99 170.844 107.281C170.948 107.573 171 107.875 171 108.188C171 108.594 170.906 109.036 170.719 109.516C170.531 109.995 170.286 110.458 169.984 110.906C169.693 111.354 169.359 111.76 168.984 112.125C168.62 112.479 168.255 112.75 167.891 112.938C167.911 113.125 167.953 113.401 168.016 113.766C168.078 114.12 168.161 114.474 168.266 114.828C168.38 115.182 168.51 115.49 168.656 115.75C168.812 116.01 168.995 116.141 169.203 116.141C169.307 116.141 169.396 116.109 169.469 116.047C169.552 115.984 169.625 115.901 169.688 115.797C169.75 115.693 169.802 115.578 169.844 115.453C169.896 115.328 169.943 115.208 169.984 115.094L170.078 114.875C170.099 114.844 170.109 114.823 170.109 114.812C170.12 114.802 170.13 114.786 170.141 114.766C170.214 114.63 170.281 114.505 170.344 114.391C170.417 114.276 170.516 114.177 170.641 114.094H170.625C170.667 114.052 170.708 114.031 170.75 114.031C170.802 114.021 170.849 114.016 170.891 114.016C171.005 114.016 171.13 114.052 171.266 114.125C171.401 114.198 171.526 114.292 171.641 114.406C171.755 114.51 171.849 114.63 171.922 114.766C171.995 114.891 172.031 115.016 172.031 115.141ZM168.938 108.25C168.938 108.146 168.932 108.036 168.922 107.922C168.911 107.807 168.885 107.708 168.844 107.625C168.698 107.802 168.568 108.016 168.453 108.266C168.349 108.505 168.26 108.76 168.188 109.031C168.115 109.292 168.052 109.557 168 109.828C167.958 110.099 167.927 110.349 167.906 110.578C168.177 110.255 168.417 109.891 168.625 109.484C168.833 109.068 168.938 108.656 168.938 108.25ZM178.531 106.672C178.531 108.109 178.417 109.526 178.188 110.922C177.969 112.318 177.703 113.708 177.391 115.094C177.349 115.229 177.323 115.344 177.312 115.438C177.25 115.74 177.182 116.052 177.109 116.375C177.047 116.688 176.943 117 176.797 117.312C176.661 117.573 176.474 117.802 176.234 118C176.005 118.188 175.75 118.281 175.469 118.281C175.354 118.281 175.234 118.255 175.109 118.203C174.984 118.151 174.849 118.083 174.703 118C174.495 117.854 174.339 117.656 174.234 117.406C174.13 117.146 174.042 116.88 173.969 116.609L173.938 116.5V116.516C173.76 115.839 173.609 115.161 173.484 114.484C173.37 113.807 173.255 113.125 173.141 112.438C173.078 112.01 173.016 111.589 172.953 111.172C172.891 110.745 172.818 110.323 172.734 109.906L172.516 108.984C172.464 108.776 172.406 108.552 172.344 108.312C172.292 108.062 172.24 107.828 172.188 107.609C172.135 107.391 172.094 107.198 172.062 107.031C172.031 106.854 172.016 106.734 172.016 106.672C172.016 106.474 172.078 106.344 172.203 106.281C172.339 106.208 172.49 106.172 172.656 106.172C172.99 106.172 173.281 106.245 173.531 106.391C173.792 106.536 173.979 106.776 174.094 107.109C174.156 107.286 174.208 107.474 174.25 107.672C174.302 107.87 174.344 108.068 174.375 108.266C174.552 108.953 174.719 109.682 174.875 110.453C175.042 111.214 175.182 111.948 175.297 112.656L175.438 113.453C175.448 113.505 175.453 113.547 175.453 113.578C175.453 113.609 175.453 113.635 175.453 113.656C175.464 113.677 175.469 113.703 175.469 113.734C175.479 113.766 175.49 113.812 175.5 113.875C175.729 112.771 175.922 111.667 176.078 110.562C176.234 109.448 176.312 108.328 176.312 107.203C176.312 106.974 176.297 106.75 176.266 106.531C176.245 106.312 176.219 106.083 176.188 105.844C176.156 105.625 176.125 105.401 176.094 105.172C176.073 104.932 176.062 104.693 176.062 104.453C176.062 104.234 176.13 104.083 176.266 104C176.401 103.917 176.568 103.875 176.766 103.875C177.005 103.875 177.224 103.891 177.422 103.922C177.62 103.953 177.792 104.016 177.938 104.109C178.083 104.193 178.203 104.318 178.297 104.484C178.391 104.641 178.453 104.849 178.484 105.109C178.505 105.349 178.516 105.609 178.516 105.891C178.526 106.161 178.531 106.422 178.531 106.672ZM185.781 115.141C185.781 115.453 185.693 115.776 185.516 116.109C185.349 116.443 185.13 116.75 184.859 117.031C184.589 117.302 184.276 117.526 183.922 117.703C183.578 117.88 183.234 117.969 182.891 117.969C182.401 117.969 181.979 117.875 181.625 117.688C181.271 117.49 180.964 117.229 180.703 116.906C180.443 116.573 180.229 116.198 180.062 115.781C179.906 115.365 179.781 114.938 179.688 114.5C179.594 114.052 179.526 113.609 179.484 113.172C179.453 112.724 179.438 112.318 179.438 111.953C179.438 111.641 179.453 111.271 179.484 110.844C179.526 110.417 179.589 109.974 179.672 109.516C179.766 109.057 179.891 108.604 180.047 108.156C180.203 107.708 180.396 107.307 180.625 106.953C180.865 106.599 181.146 106.312 181.469 106.094C181.802 105.875 182.182 105.766 182.609 105.766C182.943 105.766 183.24 105.833 183.5 105.969C183.771 106.104 183.995 106.286 184.172 106.516C184.359 106.734 184.5 106.99 184.594 107.281C184.698 107.573 184.75 107.875 184.75 108.188C184.75 108.594 184.656 109.036 184.469 109.516C184.281 109.995 184.036 110.458 183.734 110.906C183.443 111.354 183.109 111.76 182.734 112.125C182.37 112.479 182.005 112.75 181.641 112.938C181.661 113.125 181.703 113.401 181.766 113.766C181.828 114.12 181.911 114.474 182.016 114.828C182.13 115.182 182.26 115.49 182.406 115.75C182.562 116.01 182.745 116.141 182.953 116.141C183.057 116.141 183.146 116.109 183.219 116.047C183.302 115.984 183.375 115.901 183.438 115.797C183.5 115.693 183.552 115.578 183.594 115.453C183.646 115.328 183.693 115.208 183.734 115.094L183.828 114.875C183.849 114.844 183.859 114.823 183.859 114.812C183.87 114.802 183.88 114.786 183.891 114.766C183.964 114.63 184.031 114.505 184.094 114.391C184.167 114.276 184.266 114.177 184.391 114.094H184.375C184.417 114.052 184.458 114.031 184.5 114.031C184.552 114.021 184.599 114.016 184.641 114.016C184.755 114.016 184.88 114.052 185.016 114.125C185.151 114.198 185.276 114.292 185.391 114.406C185.505 114.51 185.599 114.63 185.672 114.766C185.745 114.891 185.781 115.016 185.781 115.141ZM182.688 108.25C182.688 108.146 182.682 108.036 182.672 107.922C182.661 107.807 182.635 107.708 182.594 107.625C182.448 107.802 182.318 108.016 182.203 108.266C182.099 108.505 182.01 108.76 181.938 109.031C181.865 109.292 181.802 109.557 181.75 109.828C181.708 110.099 181.677 110.349 181.656 110.578C181.927 110.255 182.167 109.891 182.375 109.484C182.583 109.068 182.688 108.656 182.688 108.25ZM190.484 118.453C190.484 118.599 190.448 118.719 190.375 118.812C190.302 118.906 190.208 118.979 190.094 119.031C189.99 119.094 189.87 119.135 189.734 119.156C189.609 119.188 189.495 119.203 189.391 119.203C189.026 119.203 188.708 119.099 188.438 118.891C188.167 118.682 187.932 118.411 187.734 118.078C187.536 117.755 187.375 117.385 187.25 116.969C187.125 116.542 187.021 116.12 186.938 115.703C186.854 115.276 186.792 114.87 186.75 114.484C186.708 114.089 186.677 113.75 186.656 113.469C186.562 112.5 186.495 111.516 186.453 110.516C186.422 109.516 186.406 108.526 186.406 107.547C186.406 104.87 186.5 102.219 186.688 99.5938C186.688 99.5521 186.688 99.5052 186.688 99.4531C186.698 99.401 186.703 99.349 186.703 99.2969C186.714 99.0781 186.724 98.8281 186.734 98.5469C186.745 98.2552 186.76 97.9688 186.781 97.6875C186.802 97.4062 186.823 97.151 186.844 96.9219C186.875 96.6823 186.911 96.5156 186.953 96.4219V96.4375C186.995 96.2917 187.052 96.1823 187.125 96.1094C187.198 96.0365 187.323 96 187.5 96C187.875 96 188.193 96.125 188.453 96.375C188.714 96.625 188.844 96.9375 188.844 97.3125C188.844 97.3958 188.839 97.4792 188.828 97.5625C188.828 97.6354 188.823 97.7083 188.812 97.7812C188.802 97.8542 188.792 97.9271 188.781 98C188.781 98.0625 188.781 98.1198 188.781 98.1719C188.75 98.5781 188.724 98.9844 188.703 99.3906C188.693 99.7865 188.677 100.188 188.656 100.594C188.604 101.49 188.562 102.385 188.531 103.281C188.51 104.167 188.5 105.062 188.5 105.969C188.5 106.354 188.505 106.859 188.516 107.484C188.526 108.109 188.547 108.792 188.578 109.531C188.609 110.26 188.651 111.016 188.703 111.797C188.766 112.578 188.844 113.323 188.938 114.031C189.031 114.74 189.141 115.38 189.266 115.953C189.401 116.526 189.557 116.969 189.734 117.281C189.828 117.323 189.917 117.391 190 117.484C190.094 117.568 190.172 117.667 190.234 117.781C190.307 117.885 190.365 117.995 190.406 118.109C190.458 118.234 190.484 118.349 190.484 118.453ZM197.719 111.594C197.719 112.5 197.641 113.406 197.484 114.312C197.339 115.208 197.031 116.057 196.562 116.859C196.417 117.099 196.25 117.333 196.062 117.562C195.875 117.781 195.667 117.979 195.438 118.156C195.219 118.344 194.974 118.49 194.703 118.594C194.443 118.708 194.167 118.766 193.875 118.766C193.417 118.766 193.016 118.656 192.672 118.438C192.339 118.229 192.047 117.953 191.797 117.609C191.557 117.255 191.354 116.859 191.188 116.422C191.031 115.974 190.906 115.521 190.812 115.062C190.729 114.594 190.667 114.141 190.625 113.703C190.594 113.266 190.578 112.88 190.578 112.547C190.578 112.172 190.594 111.76 190.625 111.312C190.656 110.865 190.708 110.406 190.781 109.938C190.865 109.469 190.969 109.005 191.094 108.547C191.229 108.089 191.401 107.661 191.609 107.266C191.818 106.859 192.068 106.5 192.359 106.188C192.651 105.865 192.99 105.609 193.375 105.422V105.438C193.708 105.26 194.042 105.172 194.375 105.172C194.583 105.172 194.745 105.219 194.859 105.312C194.974 105.396 195.026 105.542 195.016 105.75C195.589 105.854 196.052 106.13 196.406 106.578C196.76 107.026 197.031 107.547 197.219 108.141C197.417 108.734 197.547 109.344 197.609 109.969C197.682 110.594 197.719 111.135 197.719 111.594ZM194.188 107.688C194.01 107.688 193.844 107.62 193.688 107.484C193.49 107.786 193.323 108.135 193.188 108.531C193.052 108.917 192.943 109.318 192.859 109.734C192.786 110.141 192.734 110.552 192.703 110.969C192.672 111.385 192.656 111.776 192.656 112.141C192.656 112.443 192.672 112.833 192.703 113.312C192.734 113.781 192.792 114.255 192.875 114.734C192.969 115.214 193.094 115.661 193.25 116.078C193.417 116.495 193.63 116.802 193.891 117C194.214 116.812 194.479 116.516 194.688 116.109C194.906 115.693 195.078 115.24 195.203 114.75C195.328 114.26 195.411 113.766 195.453 113.266C195.505 112.766 195.531 112.339 195.531 111.984C195.531 111.724 195.516 111.385 195.484 110.969C195.453 110.552 195.401 110.13 195.328 109.703C195.255 109.266 195.151 108.859 195.016 108.484C194.891 108.109 194.729 107.828 194.531 107.641C194.438 107.672 194.323 107.688 194.188 107.688ZM201.016 113.938C201.016 114.438 201.01 114.896 201 115.312C201 115.729 201.01 116.188 201.031 116.688L201.312 116.484L201.484 116.375C201.995 115.969 202.438 115.474 202.812 114.891C203.198 114.297 203.516 113.667 203.766 113C204.016 112.333 204.198 111.651 204.312 110.953C204.438 110.245 204.5 109.573 204.5 108.938C204.5 108.812 204.495 108.641 204.484 108.422C204.484 108.193 204.464 107.969 204.422 107.75C204.38 107.531 204.318 107.344 204.234 107.188C204.151 107.021 204.031 106.938 203.875 106.938C203.625 106.938 203.37 107.089 203.109 107.391C202.849 107.693 202.604 108.052 202.375 108.469C202.156 108.885 201.958 109.307 201.781 109.734C201.604 110.151 201.474 110.479 201.391 110.719C201.391 110.729 201.385 110.734 201.375 110.734C201.375 110.734 201.375 110.74 201.375 110.75V110.766C201.312 110.911 201.245 111.068 201.172 111.234C201.109 111.401 201.068 111.557 201.047 111.703C201.026 111.849 201.01 112.016 201 112.203C200.99 112.38 200.984 112.568 200.984 112.766C200.984 112.87 200.984 112.974 200.984 113.078C200.995 113.172 201 113.26 201 113.344C201 113.458 201 113.568 201 113.672C201.01 113.766 201.016 113.854 201.016 113.938ZM201.875 128.219C201.875 128.448 201.812 128.604 201.688 128.688C201.562 128.771 201.396 128.812 201.188 128.812C200.938 128.812 200.661 128.771 200.359 128.688C200.057 128.615 199.818 128.474 199.641 128.266C199.589 128.193 199.536 127.979 199.484 127.625C199.443 127.271 199.401 126.854 199.359 126.375C199.318 125.906 199.281 125.417 199.25 124.906C199.219 124.406 199.188 123.964 199.156 123.578L199.094 122.75C198.969 120.521 198.906 118.292 198.906 116.062C198.906 114.76 198.927 113.484 198.969 112.234C199.021 110.974 199.073 109.698 199.125 108.406L199.188 106.766C199.188 106.599 199.188 106.438 199.188 106.281C199.198 106.115 199.219 105.953 199.25 105.797C199.302 105.661 199.365 105.557 199.438 105.484C199.521 105.401 199.651 105.359 199.828 105.359C200.276 105.359 200.604 105.495 200.812 105.766C201.021 106.026 201.141 106.349 201.172 106.734C201.505 106.276 201.901 105.911 202.359 105.641C202.828 105.37 203.365 105.234 203.969 105.234C204.479 105.234 204.906 105.349 205.25 105.578C205.604 105.807 205.885 106.104 206.094 106.469C206.302 106.823 206.448 107.224 206.531 107.672C206.625 108.109 206.672 108.542 206.672 108.969C206.672 109.792 206.599 110.615 206.453 111.438C206.307 112.25 206.078 113.042 205.766 113.812C205.464 114.573 205.078 115.297 204.609 115.984C204.141 116.661 203.589 117.266 202.953 117.797C202.87 117.87 202.771 117.948 202.656 118.031C202.542 118.115 202.422 118.193 202.297 118.266C202.172 118.339 202.042 118.401 201.906 118.453C201.781 118.505 201.667 118.531 201.562 118.531C201.448 118.531 201.349 118.505 201.266 118.453C201.182 118.401 201.109 118.339 201.047 118.266C201.068 118.984 201.094 119.729 201.125 120.5C201.167 121.271 201.214 122.042 201.266 122.812C201.318 123.594 201.38 124.365 201.453 125.125C201.536 125.885 201.635 126.62 201.75 127.328C201.781 127.464 201.807 127.604 201.828 127.75C201.859 127.906 201.875 128.062 201.875 128.219ZM210.188 117.922C210.188 118.161 210.115 118.318 209.969 118.391C209.833 118.464 209.667 118.5 209.469 118.5C209.292 118.5 209.115 118.484 208.938 118.453C208.771 118.432 208.609 118.385 208.453 118.312C208.307 118.24 208.177 118.141 208.062 118.016C207.958 117.891 207.885 117.729 207.844 117.531C207.698 116.906 207.615 116.297 207.594 115.703C207.573 115.099 207.562 114.479 207.562 113.844V111.922C207.562 111.047 207.599 110.141 207.672 109.203C207.745 108.255 207.823 107.344 207.906 106.469C207.906 106.438 207.911 106.401 207.922 106.359C207.932 106.318 207.938 106.286 207.938 106.266C207.948 106.151 207.964 106.026 207.984 105.891C208.005 105.755 208.036 105.635 208.078 105.531C208.13 105.417 208.198 105.323 208.281 105.25C208.375 105.177 208.495 105.141 208.641 105.141C208.807 105.141 208.964 105.177 209.109 105.25C209.266 105.312 209.401 105.401 209.516 105.516C209.63 105.62 209.719 105.75 209.781 105.906C209.854 106.062 209.891 106.224 209.891 106.391C209.891 106.599 209.88 106.818 209.859 107.047C209.849 107.266 209.833 107.479 209.812 107.688C209.792 107.833 209.776 107.943 209.766 108.016C209.766 108.089 209.76 108.208 209.75 108.375C209.875 108.156 210.016 107.938 210.172 107.719C210.339 107.49 210.521 107.292 210.719 107.125C210.917 106.948 211.13 106.807 211.359 106.703C211.599 106.589 211.854 106.531 212.125 106.531C212.396 106.531 212.62 106.578 212.797 106.672C212.974 106.755 213.115 106.875 213.219 107.031C213.323 107.177 213.396 107.354 213.438 107.562C213.479 107.771 213.5 107.99 213.5 108.219C213.5 108.365 213.495 108.505 213.484 108.641C213.484 108.776 213.479 108.911 213.469 109.047C213.458 109.182 213.448 109.318 213.438 109.453C213.438 109.578 213.438 109.714 213.438 109.859C213.438 110.13 213.443 110.391 213.453 110.641C213.474 110.88 213.495 111.135 213.516 111.406C213.62 111.062 213.745 110.672 213.891 110.234C214.047 109.797 214.224 109.349 214.422 108.891C214.63 108.432 214.854 107.984 215.094 107.547C215.344 107.099 215.609 106.703 215.891 106.359C216.182 106.016 216.495 105.74 216.828 105.531C217.161 105.312 217.51 105.203 217.875 105.203C218.448 105.203 218.849 105.37 219.078 105.703C219.318 106.036 219.438 106.464 219.438 106.984C219.438 107.13 219.432 107.286 219.422 107.453C219.411 107.609 219.396 107.76 219.375 107.906C219.323 108.469 219.281 109.047 219.25 109.641C219.229 110.234 219.219 110.812 219.219 111.375V111.672C219.219 112.401 219.25 113.089 219.312 113.734C219.375 114.38 219.5 115.062 219.688 115.781L219.812 116.203C219.854 116.349 219.901 116.51 219.953 116.688C220.016 116.865 220.068 117.036 220.109 117.203C220.151 117.37 220.188 117.526 220.219 117.672C220.25 117.818 220.266 117.932 220.266 118.016C220.266 118.234 220.188 118.38 220.031 118.453C219.875 118.526 219.714 118.562 219.547 118.562C219.443 118.562 219.323 118.557 219.188 118.547C219.052 118.547 218.917 118.531 218.781 118.5C218.656 118.479 218.531 118.443 218.406 118.391C218.292 118.339 218.198 118.271 218.125 118.188V118.203C218.031 118.109 217.964 117.995 217.922 117.859C217.88 117.724 217.849 117.589 217.828 117.453L217.797 117.312C217.651 116.75 217.526 116.245 217.422 115.797C217.328 115.349 217.25 114.901 217.188 114.453C217.125 114.005 217.078 113.542 217.047 113.062C217.026 112.583 217.016 112.031 217.016 111.406C217.016 110.875 217.036 110.333 217.078 109.781C217.13 109.229 217.182 108.688 217.234 108.156C217.234 108.104 217.234 108.047 217.234 107.984C217.245 107.911 217.255 107.849 217.266 107.797C216.87 108.411 216.521 109.089 216.219 109.828C215.927 110.557 215.661 111.307 215.422 112.078C215.193 112.849 214.99 113.625 214.812 114.406C214.646 115.177 214.495 115.911 214.359 116.609C214.359 116.62 214.38 116.682 214.422 116.797C214.474 116.901 214.521 117.026 214.562 117.172C214.615 117.307 214.661 117.443 214.703 117.578C214.745 117.703 214.766 117.786 214.766 117.828C214.766 118.068 214.688 118.214 214.531 118.266C214.375 118.318 214.214 118.344 214.047 118.344C213.922 118.344 213.786 118.339 213.641 118.328C213.495 118.318 213.349 118.292 213.203 118.25C213.068 118.208 212.938 118.151 212.812 118.078C212.698 118.016 212.604 117.922 212.531 117.797C212.469 117.693 212.396 117.448 212.312 117.062C212.229 116.667 212.141 116.208 212.047 115.688C211.953 115.156 211.865 114.589 211.781 113.984C211.698 113.38 211.62 112.807 211.547 112.266C211.474 111.724 211.417 111.25 211.375 110.844C211.333 110.438 211.312 110.161 211.312 110.016V109.781C210.979 110.5 210.703 111.271 210.484 112.094C210.266 112.917 210.099 113.724 209.984 114.516L209.922 114.797C209.901 114.88 209.885 114.964 209.875 115.047C209.865 115.12 209.859 115.193 209.859 115.266C209.859 115.38 209.87 115.521 209.891 115.688C209.922 115.854 209.958 116.036 210 116.234C210.052 116.505 210.094 116.786 210.125 117.078C210.167 117.359 210.188 117.641 210.188 117.922ZM227.312 115.141C227.312 115.453 227.224 115.776 227.047 116.109C226.88 116.443 226.661 116.75 226.391 117.031C226.12 117.302 225.807 117.526 225.453 117.703C225.109 117.88 224.766 117.969 224.422 117.969C223.932 117.969 223.51 117.875 223.156 117.688C222.802 117.49 222.495 117.229 222.234 116.906C221.974 116.573 221.76 116.198 221.594 115.781C221.438 115.365 221.312 114.938 221.219 114.5C221.125 114.052 221.057 113.609 221.016 113.172C220.984 112.724 220.969 112.318 220.969 111.953C220.969 111.641 220.984 111.271 221.016 110.844C221.057 110.417 221.12 109.974 221.203 109.516C221.297 109.057 221.422 108.604 221.578 108.156C221.734 107.708 221.927 107.307 222.156 106.953C222.396 106.599 222.677 106.312 223 106.094C223.333 105.875 223.714 105.766 224.141 105.766C224.474 105.766 224.771 105.833 225.031 105.969C225.302 106.104 225.526 106.286 225.703 106.516C225.891 106.734 226.031 106.99 226.125 107.281C226.229 107.573 226.281 107.875 226.281 108.188C226.281 108.594 226.188 109.036 226 109.516C225.812 109.995 225.568 110.458 225.266 110.906C224.974 111.354 224.641 111.76 224.266 112.125C223.901 112.479 223.536 112.75 223.172 112.938C223.193 113.125 223.234 113.401 223.297 113.766C223.359 114.12 223.443 114.474 223.547 114.828C223.661 115.182 223.792 115.49 223.938 115.75C224.094 116.01 224.276 116.141 224.484 116.141C224.589 116.141 224.677 116.109 224.75 116.047C224.833 115.984 224.906 115.901 224.969 115.797C225.031 115.693 225.083 115.578 225.125 115.453C225.177 115.328 225.224 115.208 225.266 115.094L225.359 114.875C225.38 114.844 225.391 114.823 225.391 114.812C225.401 114.802 225.411 114.786 225.422 114.766C225.495 114.63 225.562 114.505 225.625 114.391C225.698 114.276 225.797 114.177 225.922 114.094H225.906C225.948 114.052 225.99 114.031 226.031 114.031C226.083 114.021 226.13 114.016 226.172 114.016C226.286 114.016 226.411 114.052 226.547 114.125C226.682 114.198 226.807 114.292 226.922 114.406C227.036 114.51 227.13 114.63 227.203 114.766C227.276 114.891 227.312 115.016 227.312 115.141ZM224.219 108.25C224.219 108.146 224.214 108.036 224.203 107.922C224.193 107.807 224.167 107.708 224.125 107.625C223.979 107.802 223.849 108.016 223.734 108.266C223.63 108.505 223.542 108.76 223.469 109.031C223.396 109.292 223.333 109.557 223.281 109.828C223.24 110.099 223.208 110.349 223.188 110.578C223.458 110.255 223.698 109.891 223.906 109.484C224.115 109.068 224.219 108.656 224.219 108.25ZM230.625 117.922C230.625 118.161 230.552 118.318 230.406 118.391C230.271 118.464 230.104 118.5 229.906 118.5C229.729 118.5 229.552 118.484 229.375 118.453C229.208 118.432 229.047 118.385 228.891 118.312C228.745 118.24 228.615 118.141 228.5 118.016C228.396 117.891 228.323 117.729 228.281 117.531C228.135 116.906 228.052 116.297 228.031 115.703C228.01 115.099 228 114.479 228 113.844V111.922C228 111.047 228.036 110.141 228.109 109.203C228.182 108.255 228.26 107.344 228.344 106.469C228.344 106.438 228.349 106.401 228.359 106.359C228.37 106.318 228.375 106.286 228.375 106.266C228.385 106.151 228.401 106.026 228.422 105.891C228.443 105.755 228.474 105.635 228.516 105.531C228.568 105.417 228.635 105.323 228.719 105.25C228.812 105.177 228.932 105.141 229.078 105.141C229.245 105.141 229.401 105.177 229.547 105.25C229.703 105.312 229.839 105.401 229.953 105.516C230.068 105.62 230.156 105.75 230.219 105.906C230.292 106.062 230.328 106.224 230.328 106.391C230.328 106.568 230.323 106.766 230.312 106.984C230.302 107.193 230.286 107.391 230.266 107.578C230.266 107.63 230.26 107.688 230.25 107.75C230.25 107.812 230.245 107.87 230.234 107.922C230.38 107.63 230.547 107.328 230.734 107.016C230.922 106.693 231.135 106.401 231.375 106.141C231.625 105.87 231.896 105.651 232.188 105.484C232.49 105.318 232.823 105.234 233.188 105.234C233.49 105.234 233.74 105.281 233.938 105.375C234.135 105.469 234.292 105.604 234.406 105.781C234.531 105.948 234.615 106.146 234.656 106.375C234.708 106.604 234.734 106.849 234.734 107.109C234.734 107.464 234.724 107.823 234.703 108.188C234.682 108.542 234.661 108.896 234.641 109.25C234.609 109.615 234.583 109.974 234.562 110.328C234.542 110.682 234.531 111.042 234.531 111.406C234.531 111.844 234.542 112.297 234.562 112.766C234.583 113.224 234.615 113.667 234.656 114.094C234.698 114.51 234.745 114.891 234.797 115.234C234.849 115.568 234.901 115.828 234.953 116.016C234.995 116.172 235.036 116.354 235.078 116.562C235.13 116.76 235.177 116.969 235.219 117.188C235.271 117.396 235.312 117.599 235.344 117.797C235.375 117.995 235.391 118.172 235.391 118.328C235.391 118.557 235.297 118.703 235.109 118.766C234.932 118.828 234.755 118.859 234.578 118.859C234.401 118.859 234.198 118.844 233.969 118.812C233.75 118.792 233.552 118.734 233.375 118.641C233.156 118.484 233.01 118.266 232.938 117.984C232.875 117.703 232.833 117.427 232.812 117.156L232.766 116.734C232.734 116.484 232.693 116.156 232.641 115.75C232.589 115.344 232.536 114.896 232.484 114.406C232.443 113.917 232.406 113.411 232.375 112.891C232.344 112.359 232.328 111.844 232.328 111.344C232.328 110.896 232.344 110.464 232.375 110.047C232.417 109.63 232.458 109.208 232.5 108.781C232.521 108.562 232.536 108.385 232.547 108.25C232.557 108.115 232.573 107.938 232.594 107.719C232.385 108.052 232.177 108.443 231.969 108.891C231.76 109.339 231.562 109.807 231.375 110.297C231.188 110.776 231.016 111.245 230.859 111.703C230.714 112.161 230.599 112.562 230.516 112.906L230.422 113.25C230.37 113.417 230.323 113.583 230.281 113.75C230.25 113.917 230.234 114.073 230.234 114.219C230.234 114.406 230.245 114.625 230.266 114.875C230.286 115.115 230.312 115.344 230.344 115.562C230.375 115.823 230.411 116.089 230.453 116.359C230.453 116.38 230.464 116.448 230.484 116.562C230.505 116.677 230.526 116.812 230.547 116.969C230.568 117.125 230.583 117.292 230.594 117.469C230.615 117.635 230.625 117.786 230.625 117.922ZM240.031 117.609C240.031 117.724 240.005 117.823 239.953 117.906C239.901 117.979 239.833 118.036 239.75 118.078C239.677 118.12 239.594 118.146 239.5 118.156C239.417 118.177 239.333 118.188 239.25 118.188C239.135 118.188 239 118.172 238.844 118.141C238.698 118.12 238.552 118.083 238.406 118.031C238.26 117.979 238.125 117.917 238 117.844C237.885 117.76 237.797 117.661 237.734 117.547C237.672 117.443 237.615 117.25 237.562 116.969C237.521 116.677 237.484 116.344 237.453 115.969C237.422 115.583 237.396 115.177 237.375 114.75C237.354 114.312 237.333 113.896 237.312 113.5C237.302 113.104 237.292 112.75 237.281 112.438C237.281 112.115 237.281 111.875 237.281 111.719C237.281 110.99 237.292 110.286 237.312 109.609C237.344 108.922 237.375 108.219 237.406 107.5C237.354 107.5 237.302 107.505 237.25 107.516C237.198 107.526 237.146 107.531 237.094 107.531C236.958 107.552 236.818 107.568 236.672 107.578C236.536 107.589 236.396 107.594 236.25 107.594C236.073 107.594 235.917 107.562 235.781 107.5C235.646 107.438 235.578 107.297 235.578 107.078C235.578 106.818 235.635 106.609 235.75 106.453C235.865 106.297 236.01 106.177 236.188 106.094C236.365 106 236.557 105.938 236.766 105.906C236.974 105.865 237.177 105.833 237.375 105.812C237.406 105.812 237.427 105.812 237.438 105.812C237.448 105.802 237.469 105.797 237.5 105.797C237.51 105.672 237.521 105.521 237.531 105.344C237.542 105.156 237.552 104.953 237.562 104.734C237.573 104.391 237.589 104.026 237.609 103.641C237.63 103.245 237.651 102.87 237.672 102.516C237.693 102.151 237.719 101.833 237.75 101.562C237.781 101.281 237.812 101.083 237.844 100.969C237.896 100.833 237.953 100.724 238.016 100.641C238.089 100.557 238.219 100.516 238.406 100.516C238.823 100.516 239.146 100.651 239.375 100.922C239.604 101.193 239.719 101.526 239.719 101.922C239.719 102.38 239.703 102.839 239.672 103.297C239.651 103.755 239.63 104.219 239.609 104.688L239.562 105.484C239.823 105.453 240.083 105.406 240.344 105.344C240.594 105.292 240.844 105.245 241.094 105.203C241.354 105.161 241.604 105.141 241.844 105.141C242.052 105.141 242.214 105.198 242.328 105.312C242.443 105.417 242.5 105.573 242.5 105.781C242.5 106.01 242.458 106.234 242.375 106.453C242.292 106.672 242.146 106.839 241.938 106.953H241.953C241.911 106.974 241.786 107.005 241.578 107.047C241.37 107.078 241.13 107.109 240.859 107.141C240.599 107.172 240.339 107.203 240.078 107.234C239.828 107.266 239.641 107.286 239.516 107.297H239.5C239.479 107.88 239.464 108.458 239.453 109.031C239.443 109.594 239.438 110.167 239.438 110.75C239.438 111.552 239.458 112.406 239.5 113.312C239.552 114.208 239.635 115.062 239.75 115.875L239.875 116.578C239.917 116.755 239.953 116.932 239.984 117.109C240.016 117.276 240.031 117.443 240.031 117.609Z" fill="white"/>
</svg>
