<svg width="26" height="26" viewBox="0 0 26 26" fill="none" xmlns="http://www.w3.org/2000/svg">
<circle cx="13" cy="13" r="13" fill="#1F2833"/>
<mask id="mask0_4_8" style="mask-type:alpha" maskUnits="userSpaceOnUse" x="0" y="0" width="26" height="26">
<circle cx="13" cy="13" r="13" fill="#AE6262"/>
</mask>
<g mask="url(#mask0_4_8)">
<rect y="23" width="29" height="5" fill="white"/>
<path d="M13 4C14.3261 4 15.5979 4.52678 16.5355 5.46447C17.4732 6.40215 18 7.67392 18 9C18 10.3261 17.4732 11.5979 16.5355 12.5355C15.5979 13.4732 14.3261 14 13 14C11.6739 14 10.4021 13.4732 9.46447 12.5355C8.52678 11.5979 8 10.3261 8 9C8 7.67392 8.52678 6.40215 9.46447 5.46447C10.4021 4.52678 11.6739 4 13 4ZM13 16.5C18.525 16.5 23 18.7375 23 21.5V24H3V21.5C3 18.7375 7.475 16.5 13 16.5Z" fill="white"/>
</g>
</svg>
