<svg width="22" height="20" viewBox="0 0 22 20" fill="none" xmlns="http://www.w3.org/2000/svg">
<path d="M10.9998 19.995C11.5008 19.9955 11.9935 19.8665 12.43 19.6207C12.8666 19.3749 13.2323 19.0206 13.4918 18.592L21.6018 5.055C21.8594 4.61456 21.9968 4.1142 22.0004 3.60396C22.0039 3.09373 21.8734 2.59152 21.6219 2.14756C21.3704 1.7036 21.0067 1.33346 20.5673 1.07416C20.1279 0.814859 19.628 0.675492 19.1178 0.67L2.89281 0.67C2.38304 0.673596 1.88314 0.81086 1.44301 1.06808C1.00289 1.32531 0.637945 1.69349 0.384621 2.13588C0.131297 2.57826 -0.00154135 3.07935 -0.000631332 3.58913C0.000278689 4.09891 0.134905 4.59953 0.389807 5.041L8.50581 18.587C8.76556 19.0162 9.13149 19.3712 9.56833 19.6178C10.0052 19.8644 10.4982 19.9943 10.9998 19.995Z" fill="white"/>
</svg>
