<svg width="24" height="24" viewBox="0 0 24 24" fill="none" xmlns="http://www.w3.org/2000/svg">
<path d="M12 1.67C11.499 1.66955 11.0063 1.79846 10.5698 2.04426C10.1332 2.29005 9.76746 2.6444 9.508 3.073L1.398 16.61C1.1404 17.0504 1.00296 17.5508 0.999434 18.061C0.995909 18.5713 1.12642 19.0735 1.37791 19.5174C1.62941 19.9614 1.99306 20.3315 2.43251 20.5908C2.87196 20.8501 3.37179 20.9895 3.882 20.995H20.107C20.6168 20.9914 21.1167 20.8541 21.5568 20.5969C21.9969 20.3397 22.3619 19.9715 22.6152 19.5291C22.8685 19.0867 23.0013 18.5856 23.0004 18.0759C22.9995 17.5661 22.8649 17.0655 22.61 16.624L14.494 3.078C14.2342 2.64885 13.8683 2.29385 13.4315 2.04723C12.9946 1.80062 12.5016 1.6707 12 1.67Z" fill="white"/>
</svg>
