<svg width="12" height="12" viewBox="0 0 12 12" fill="none" xmlns="http://www.w3.org/2000/svg">
<path d="M2.22 2.22001C2.36062 2.07956 2.55125 2.00067 2.75 2.00067C2.94875 2.00067 3.13937 2.07956 3.28 2.22001L6 4.93901L8.72 2.22001C8.7896 2.15041 8.87223 2.0952 8.96316 2.05753C9.0541 2.01986 9.15157 2.00047 9.25 2.00047C9.34843 2.00047 9.44589 2.01986 9.53683 2.05753C9.62777 2.0952 9.7104 2.15041 9.78 2.22001C9.8496 2.28961 9.90481 2.37223 9.94248 2.46317C9.98014 2.55411 9.99953 2.65158 9.99953 2.75001C9.99953 2.84844 9.98014 2.9459 9.94248 3.03684C9.90481 3.12778 9.8496 3.21041 9.78 3.28001L7.061 6.00001L9.78 8.72001C9.92056 8.86057 9.99953 9.05122 9.99953 9.25001C9.99953 9.44879 9.92056 9.63944 9.78 9.78001C9.63943 9.92057 9.44879 9.99954 9.25 9.99954C9.05121 9.99954 8.86056 9.92057 8.72 9.78001L6 7.06101L3.28 9.78001C3.13943 9.92057 2.94879 9.99954 2.75 9.99954C2.55121 9.99954 2.36056 9.92057 2.22 9.78001C2.07943 9.63944 2.00047 9.44879 2.00047 9.25001C2.00047 9.05122 2.07943 8.86057 2.22 8.72001L4.939 6.00001L2.22 3.28001C2.07955 3.13938 2.00066 2.94876 2.00066 2.75001C2.00066 2.55126 2.07955 2.36063 2.22 2.22001Z" fill="white"/>
</svg>
